HIERARCHY
ROOT root
{
	OFFSET	0	13.1	24.9
	CHANNELS 6  Xposition Yposition Zposition Xrotation Yrotation Zrotation
	JOINT spine_1
	{
		OFFSET	0	9.99999	0
		CHANNELS 3  Xrotation Yrotation Zrotation
		JOINT spine_2
		{
			OFFSET	0	112	-10
			CHANNELS 3  Xrotation Yrotation Zrotation
			JOINT spine_3
			{
				OFFSET	0	206.5	19.3
				CHANNELS 3  Xrotation Yrotation Zrotation
				JOINT spine_4
				{
					OFFSET	0	110.4	14.6
					CHANNELS 3  Xrotation Yrotation Zrotation
					JOINT neck_1
					{
						OFFSET	0	71.8	-50.3
						CHANNELS 3  Xrotation Yrotation Zrotation
						JOINT neck_2
						{
							OFFSET	0	86.2	-25.8
							CHANNELS 3  Xrotation Yrotation Zrotation
							JOINT head_ee
							{
								OFFSET	0	179.8	-8.7
								CHANNELS 3  Xrotation Yrotation Zrotation
								End Site
								{
									OFFSET	1	0	0
								}
							}
						}
					}
					JOINT left_clavicle
					{
						OFFSET	-43.2	22.4	-70.8
						CHANNELS 3  Xrotation Yrotation Zrotation
						JOINT left_shoulder
						{
							OFFSET	-93.9	-5.79999	48.7
							CHANNELS 3  Xrotation Yrotation Zrotation
							JOINT left_elbow
							{
								OFFSET	-291.4	-30.8	15.2
								CHANNELS 3  Xrotation Yrotation Zrotation
								JOINT left_lowarm_twist
								{
									OFFSET	-110.7	-3.89999	13.6
									CHANNELS 3  Xrotation Yrotation Zrotation
									JOINT left_hand
									{
										OFFSET	-110.7	-3.89999	13.6
										CHANNELS 3  Xrotation Yrotation Zrotation
										JOINT left_ee
										{
											OFFSET	-80.8	-5.10001	12.1
											CHANNELS 3  Xrotation Yrotation Zrotation
											End Site
											{
												OFFSET	1	0	0
											}
										}
									}
								}
							}
						}
					}
					JOINT right_clavicle
					{
						OFFSET	43.2	22.4	-70.8
						CHANNELS 3  Xrotation Yrotation Zrotation
						JOINT right_shoulder
						{
							OFFSET	93.9	-5.79999	48.7
							CHANNELS 3  Xrotation Yrotation Zrotation
							JOINT right_elbow
							{
								OFFSET	291.4	-30.8	15.2
								CHANNELS 3  Xrotation Yrotation Zrotation
								JOINT right_lowarm_twist
								{
									OFFSET	110.7	-3.89999	13.6
									CHANNELS 3  Xrotation Yrotation Zrotation
									JOINT right_hand
									{
										OFFSET	110.7	-3.89999	13.6
										CHANNELS 3  Xrotation Yrotation Zrotation
										JOINT right_ee
										{
											OFFSET	80.8	-5.10001	12.1
											CHANNELS 3  Xrotation Yrotation Zrotation
											End Site
											{
												OFFSET	1	0	0
											}
										}
									}
								}
							}
						}
					}
				}
			}
		}
	}
	JOINT left_hip
	{
		OFFSET	-82.8	-127.5	0.300001
		CHANNELS 3  Xrotation Yrotation Zrotation
		JOINT left_knee
		{
			OFFSET	-28.2	-396.7	2.2
			CHANNELS 3  Xrotation Yrotation Zrotation
			JOINT left_ankle
			{
				OFFSET	-11.7	-411.3	35.4
				CHANNELS 3  Xrotation Yrotation Zrotation
				JOINT left_toes
				{
					OFFSET	0	-60	-88.6
					CHANNELS 3  Xrotation Yrotation Zrotation
					JOINT left_foot_ee
					{
						OFFSET	-22.5	-16.5	-42.2
						CHANNELS 3  Xrotation Yrotation Zrotation
						End Site
						{
							OFFSET	1	0	0
						}
					}
				}
			}
		}
	}
	JOINT right_hip
	{
		OFFSET	82.8	-127.5	0.300001
		CHANNELS 3  Xrotation Yrotation Zrotation
		JOINT right_knee
		{
			OFFSET	28.2	-396.7	2.2
			CHANNELS 3  Xrotation Yrotation Zrotation
			JOINT right_ankle
			{
				OFFSET	11.7	-411.3	35.4
				CHANNELS 3  Xrotation Yrotation Zrotation
				JOINT right_toes
				{
					OFFSET	0	-60	-88.6
					CHANNELS 3  Xrotation Yrotation Zrotation
					JOINT right_foot_ee
					{
						OFFSET	22.5	-16.5	-42.2
						CHANNELS 3  Xrotation Yrotation Zrotation
						End Site
						{
							OFFSET	1	0	0
						}
					}
				}
			}
		}
	}
}
MOTION
Frames: 5
Frame Time: 0.02
3243.57 664.706 -1571.72 -18.813 73.3447 20.4481 -0.11909 0.474177 0.853711 -0.118782 0.418894 0.882152 -0.111985 0.222312 0.950911 -0.113057 0.369695 0.903873 5.27842 21.0239 -2.8195 7.60429 38.5652 -3.08078 -0.0 0.0 -0.0 4.15291 24.6032 8.4143 -20.2638 -3.82952 72.2974 0.537758 -14.9168 0.0704002 -26.7422 -1.66378 2.95539 -3.27136 27.093 -7.37817 -0.0 0.0 -0.0 13.5515 23.0271 -27.2795 7.92178 24.3181 -66.9525 0.840201 22.5974 -0.167872 7.60652 -0.20524 0.94926 3.52313 -12.4836 -28.7049 0.0 0.0 0.0 30.0277 13.8896 -11.7166 4.12041 -0.191476 -0.603069 -7.16726 -12.4034 1.1401 -28.0692 0.0 0.0 -0.0 0.0 -0.0 -6.43994 -22.4629 4.36702 -11.9166 -0.304375 -1.80017 34.1815 30.1807 5.31796 -14.891 0.0 0.0 0.0 0.0 0.0 
3211.45 664.43 -1564.63 -17.4121 74.364 18.937 -0.0259839 0.198729 0.901197 -0.0255431 0.140983 0.912016 -0.0230316 -0.0542184 0.921253 -0.0242042 0.0919505 0.918255 6.7609 21.2059 -3.48073 9.47103 39.0275 -4.37719 -0.0 0.0 -0.0 4.58085 24.7248 8.99295 -20.5002 -3.72829 71.5461 0.494578 -13.7665 0.059704 -26.9172 -1.67903 2.97185 -3.39568 27.1631 -8.02749 -0.0 0.0 -0.0 13.3858 23.1851 -26.8768 5.92363 23.5456 -67.3969 0.767098 20.8066 -0.140837 8.25668 -0.216901 1.03149 3.74052 -12.9948 -30.4628 0.0 0.0 0.0 28.2352 14.4277 -10.4461 3.91008 -0.180653 -0.572622 -7.64042 -12.8708 1.22024 -28.1755 0.0 0.0 -0.0 0.0 -0.0 -7.0872 -22.1165 4.90917 -12.8237 -0.312106 -1.93914 33.2415 25.7442 4.94959 -15.3844 0.0 0.0 0.0 0.0 0.0 
3191.44 667.226 -1562.72 -18.9615 75.0249 20.7355 0.0635648 0.0466996 0.928487 0.0640444 -0.0124745 0.929577 0.0640421 -0.206576 0.906421 0.0629006 -0.0608373 0.927668 7.35361 20.4232 -4.28277 10.1053 38.22 -5.48599 -0.0 0.0 -0.0 5.53008 24.6693 10.2917 -20.4919 -3.54526 69.2746 0.435656 -12.1785 0.0464757 -26.8098 -1.66966 2.96175 -3.2437 25.4994 -8.14061 -0.0 0.0 -0.0 13.0138 22.5457 -26.0705 4.47636 23.2545 -68.4536 0.719448 19.6158 -0.124374 9.98902 -0.243409 1.25118 4.24946 -10.5748 -33.6248 0.0 0.0 0.0 27.0835 15.4978 -9.78577 3.60381 -0.165093 -0.528219 -3.33543 -13.4323 0.530219 -28.2461 0.0 0.0 -0.0 0.0 -0.0 -7.03624 -20.8917 5.575 -13.8313 -0.318113 -2.09361 33.1063 21.2811 4.72503 -14.5086 0.0 0.0 0.0 0.0 0.0 
3166.7 671.15 -1557.56 -21.0756 75.1752 22.5555 0.25106 0.0490633 1.13103 0.251771 -0.0230017 1.13186 0.251577 -0.255571 1.10287 0.249887 -0.078197 1.12939 7.9868 19.9669 -4.67089 10.7817 37.6136 -6.11534 -0.0 0.0 -0.0 6.15496 24.942 11.1316 -20.5837 -3.46876 67.4873 0.395456 -11.0839 0.0383706 -26.8268 -1.67115 2.96336 -3.13412 24.4982 -8.08658 -0.0 0.0 -0.0 12.7995 22.0614 -25.6161 2.8387 23.0305 -69.1111 0.676313 18.5222 -0.11028 10.8125 -0.253678 1.35586 4.64243 -9.5171 -36.4367 0.0 0.0 0.0 25.9459 16.3564 -9.16211 2.62575 -0.117 -0.385883 -1.30314 -14.792 0.208198 -27.687 0.0 0.0 -0.0 0.0 -0.0 -6.90554 -19.2114 6.666 -15.1567 -0.321876 -2.29693 30.5425 17.1762 4.29231 -13.9256 0.0 0.0 0.0 0.0 0.0 
3142.42 671.09 -1554.39 -23.6004 77.0792 24.4467 0.389812 -0.0895391 1.22385 0.39063 -0.167229 1.21567 0.38727 -0.411261 1.15616 0.385474 -0.22352 1.2066 8.97718 19.6816 -3.90788 11.6259 36.2007 -5.35468 -0.0 0.0 -0.0 6.41775 24.5018 11.53 -20.8128 -3.21373 66.5609 0.460553 -12.852 0.0518711 -27.4342 -1.72437 3.02019 -3.06279 23.9346 -7.9936 -0.0 0.0 -0.0 12.5662 21.7537 -25.1024 1.0562 22.5624 -69.389 0.614821 16.939 -0.0915518 10.4588 -0.249452 1.31089 4.7868 -9.69121 -37.6851 0.0 0.0 0.0 24.3452 15.6709 -7.47346 0.220671 -0.00914941 -0.0326278 6.17087 -17.9078 -0.988235 -26.718 0.0 0.0 -0.0 0.0 -0.0 -6.40876 -16.2287 7.73335 -20.5897 -0.288162 -3.12953 31.9277 7.05503 4.19718 -9.51832 0.0 0.0 0.0 0.0 0.0 
